<!--?xml version="1.0" standalone="no"?-->
              <svg id="sw-js-blob-svg" viewBox="0 0 100 100" xmlns="http://www.w3.org/2000/svg" version="1.1">
                    <defs> 
                        <linearGradient id="sw-gradient" x1="0" x2="1" y1="1" y2="0">
                            <stop id="stop1" stop-color="rgba(85, 128, 160, 1)" offset="0%"></stop>
                            <stop id="stop2" stop-color="rgba(142.989, 193.543, 231.165, 0.24)" offset="100%"></stop>
                        </linearGradient>
                    </defs>
                <path fill="url(#sw-gradient)" d="M19.4,-23.1C25.4,-18,30.9,-12.2,34.4,-4.3C37.8,3.6,39.3,13.5,35,19.6C30.8,25.6,20.8,27.6,12,29.2C3.2,30.7,-4.4,31.9,-12.9,30.8C-21.4,29.7,-30.8,26.5,-34.1,20C-37.5,13.6,-34.8,3.9,-32.8,-5.5C-30.8,-14.9,-29.4,-24.2,-24.1,-29.4C-18.7,-34.6,-9.3,-35.7,-1.3,-34.1C6.6,-32.5,13.3,-28.1,19.4,-23.1Z" width="100%" height="100%" transform="translate(50 50)" stroke-width="0" style="transition: all 0.3s ease 0s;" stroke="url(#sw-gradient)"></path>
              </svg>